<?xml version="1.0" encoding="UTF-8"?>
<svg xmlns="http://www.w3.org/2000/svg" viewBox="0 0 220 44" width="220" height="44">
  <g>
    <rect x="0" y="4" width="36" height="36" rx="8" fill="#ff5e14"/>
    <path d="M18 11c-1 4-5 6-5 11 0 4 2 8 5 8s5-4 5-8c0-5-4-7-5-11zm0 13c-1 2-2 3-2 5 0 1 1 2 2 2s2-1 2-2c0-2-1-3-2-5z" fill="#fff"/>
    <text x="44" y="30" font-family="'Poppins', system-ui, sans-serif" font-size="22" font-weight="700" fill="#ffffff" letter-spacing="-0.02em">BrightAir</text>
    <circle cx="210" cy="30" r="3" fill="#ff5e14"/>
  </g>
</svg>
